Coordinates
version=1
nRows=38
nColumns=38
inDegrees=no

Units are S.I. units (second, meters, Newtons, ...)
If the header above contains a line with 'inDegrees', this indicates whether rotational values are in degrees (yes) or radians (no).

endheader
time	pelvis_tilt	pelvis_list	pelvis_rotation	pelvis_tx	pelvis_ty	pelvis_tz	hip_flexion_r	hip_adduction_r	hip_rotation_r	knee_angle_r	ankle_angle_r	subtalar_angle_r	mtp_angle_r	hip_flexion_l	hip_adduction_l	hip_rotation_l	knee_angle_l	ankle_angle_l	subtalar_angle_l	mtp_angle_l	lumbar_extension	lumbar_bending	lumbar_rotation	arm_flex_r	arm_add_r	arm_rot_r	elbow_flex_r	pro_sup_r	wrist_flex_r	wrist_dev_r	arm_flex_l	arm_add_l	arm_rot_l	elbow_flex_l	pro_sup_l	wrist_flex_l	wrist_dev_l
22.32	1.25851	1.44603	0.239887	0.845222	-0.349887	0.972615	0.0497104	0.108368	-0.183766	0.172079	0.0747355	0	0	-0.051928	-0.129938	-0.272258	0	0.0371797	0	0	-0.00356439	0.157244	0.0221216	-0.136006	-0.202357	-0.0105943	0.743031	0	0	0	-0.0662561	-0.153951	0.450808	0.562833	1.00465	0	0
22.33	1.26227	1.44576	0.235607	0.844973	-0.3495	0.972615	0.0486301	0.108593	-0.183376	0.17158	0.0747852	0	0	-0.0529797	-0.129937	-0.272659	0	0.0377644	0	0	-0.00332718	0.15799	0.0215782	-0.135534	-0.202701	-0.00829835	0.742453	0	0	0	-0.0653104	-0.154551	0.450303	0.563154	1.00546	0	0
22.34	1.26528	1.44558	0.232324	0.8447	-0.349134	0.972594	0.0478283	0.108617	-0.183386	0.171404	0.0748734	0	0	-0.0538373	-0.129834	-0.272873	0	0.0384094	0	0	-0.00308378	0.158658	0.0210044	-0.135285	-0.203068	-0.0061325	0.742131	0	0	0	-0.0643612	-0.155131	0.449849	0.563777	1.0062	0	0
22.35	1.26719	1.44532	0.230412	0.844424	-0.348805	0.972564	0.04736	0.108641	-0.183571	0.171485	0.075134	0	0	-0.0544229	-0.129789	-0.272589	0	0.038815	0	0	-0.00280072	0.159362	0.0204021	-0.13516	-0.203408	-0.00419808	0.741916	0	0	0	-0.0634378	-0.155445	0.448158	0.564041	1.00494	0	0
22.36	1.26842	1.44521	0.229183	0.844134	-0.348495	0.972541	0.0472045	0.108443	-0.183638	0.172153	0.0757016	0	0	-0.0549087	-0.129567	-0.272272	0	0.0391456	0	0	-0.00245372	0.159831	0.0197506	-0.135111	-0.203725	-0.00249354	0.741176	0	0	0	-0.0629211	-0.155626	0.444431	0.56394	0.99974	0	0
22.37	1.27186	1.44527	0.225583	0.843846	-0.348175	0.972541	0.0468453	0.108102	-0.18368	0.173058	0.0760996	0	0	-0.0557603	-0.129219	-0.272364	0	0.0396634	0	0	-0.00248427	0.160219	0.019503	-0.1355	-0.203948	-0.0018538	0.740613	0	0	0	-0.0624168	-0.155935	0.440794	0.563938	0.991206	0	0
22.38	1.27611	1.44541	0.221241	0.843563	-0.347863	0.972554	0.0463712	0.107685	-0.183783	0.173827	0.076438	0	0	-0.0566972	-0.128815	-0.272682	0	0.0403183	0	0	-0.00270078	0.160509	0.0194578	-0.135969	-0.203989	-0.00172761	0.739719	0	0	0	-0.0615704	-0.15692	0.442473	0.565788	0.987928	0	0
22.39	1.28009	1.44549	0.217395	0.843264	-0.347569	0.972564	0.0459538	0.107296	-0.183901	0.17462	0.0768566	0	0	-0.0574876	-0.128448	-0.272763	0	0.0408681	0	0	-0.00295695	0.160818	0.0195528	-0.136677	-0.203996	-0.00178291	0.739122	0	0	0	-0.0604912	-0.15776	0.444448	0.567048	0.985665	0	0
22.4	1.28535	1.44561	0.212486	0.842936	-0.347303	0.972595	0.0452823	0.106921	-0.183912	0.175324	0.0772702	0	0	-0.0584173	-0.128112	-0.272473	0	0.0411554	0	0	-0.00343839	0.16113	0.0196289	-0.137197	-0.203912	-0.00198924	0.73826	0	0	0	-0.0593199	-0.158321	0.445392	0.567448	0.982588	0	0
22.41	1.29094	1.44565	0.207418	0.842612	-0.347059	0.97264	0.0445171	0.106693	-0.184052	0.17591	0.0775515	0	0	-0.0592972	-0.127923	-0.272205	0	0.0415214	0	0	-0.00395209	0.161522	0.0194814	-0.137669	-0.203836	-0.0021808	0.736961	0	0	0	-0.0582336	-0.158805	0.446056	0.567517	0.979159	0	0
22.42	1.29525	1.4456	0.203897	0.842296	-0.346832	0.97267	0.0439711	0.106469	-0.184729	0.176451	0.07773	0	0	-0.0598949	-0.127783	-0.271726	0	0.04193	0	0	-0.00427735	0.161922	0.0189563	-0.137978	-0.203713	-0.00240182	0.73506	0	0	0	-0.0574388	-0.159349	0.446532	0.567947	0.976069	0	0
22.43	1.29821	1.4455	0.202356	0.841956	-0.346557	0.972677	0.0433775	0.10627	-0.186265	0.17643	0.0779504	0	0	-0.0602296	-0.127712	-0.270553	0	0.0423481	0	0	-0.00417721	0.162263	0.0176947	-0.138367	-0.203412	-0.00258604	0.732922	0	0	0	-0.056994	-0.160016	0.446982	0.568445	0.973699	0	0
22.44	1.29936	1.4453	0.203267	0.8416	-0.346221	0.972655	0.0427133	0.10616	-0.188587	0.175822	0.0780133	0	0	-0.0602146	-0.127768	-0.268744	0	0.0427929	0	0	-0.00350633	0.162573	0.0159734	-0.139327	-0.202949	-0.00322896	0.731005	0	0	0	-0.0566409	-0.160864	0.44827	0.568727	0.972035	0	0
22.45	1.30238	1.44532	0.201178	0.841279	-0.345989	0.972664	0.0419937	0.105933	-0.188985	0.175585	0.0781421	0	0	-0.0606257	-0.127552	-0.268158	0	0.0430973	0	0	-0.0036653	0.162797	0.0157366	-0.140455	-0.2027	-0.00412011	0.729735	0	0	0	-0.055907	-0.161482	0.449638	0.568776	0.9702	0	0
22.46	1.30456	1.44544	0.199605	0.840985	-0.345806	0.972666	0.0415654	0.105537	-0.189206	0.175728	0.0783178	0	0	-0.0609643	-0.127188	-0.267848	0	0.0433745	0	0	-0.00392803	0.16289	0.0157521	-0.141518	-0.202447	-0.0050173	0.728562	0	0	0	-0.0553043	-0.162082	0.450856	0.568983	0.968248	0	0
22.47	1.30625	1.44544	0.198587	0.840708	-0.345633	0.972651	0.0413021	0.105232	-0.189775	0.176027	0.0785357	0	0	-0.0611902	-0.126942	-0.267397	0	0.0436771	0	0	-0.00422025	0.163064	0.015764	-0.142706	-0.202264	-0.00571373	0.727697	0	0	0	-0.0546105	-0.162558	0.452411	0.568864	0.967054	0	0
22.48	1.30827	1.44539	0.197218	0.840447	-0.345465	0.972643	0.0409962	0.105064	-0.190407	0.176231	0.0787005	0	0	-0.0614762	-0.126813	-0.266956	0	0.0439137	0	0	-0.0045556	0.163279	0.0159086	-0.143878	-0.202067	-0.00649042	0.726562	0	0	0	-0.0540287	-0.163037	0.454007	0.569015	0.966664	0	0
22.49	1.31006	1.44541	0.196006	0.840212	-0.34531	0.972643	0.0407028	0.104857	-0.190774	0.17639	0.0789531	0	0	-0.061801	-0.126617	-0.266527	0	0.0439719	0	0	-0.00482875	0.163385	0.0162216	-0.145033	-0.201811	-0.00736869	0.725261	0	0	0	-0.0538811	-0.163568	0.454898	0.569435	0.967529	0	0
22.5	1.31072	1.44537	0.19592	0.839971	-0.345168	0.972627	0.0406881	0.10463	-0.191414	0.176769	0.0791173	0	0	-0.061955	-0.126439	-0.266064	0	0.0440577	0	0	-0.00492848	0.163538	0.0162312	-0.145837	-0.201591	-0.00771083	0.723563	0	0	0	-0.0540231	-0.163868	0.455211	0.569372	0.969774	0	0
22.51	1.30996	1.44518	0.197267	0.83974	-0.345035	0.972593	0.0409792	0.104514	-0.192275	0.177299	0.0793804	0	0	-0.0618564	-0.126387	-0.265684	0	0.0442963	0	0	-0.00481364	0.163823	0.0161329	-0.146528	-0.201427	-0.00789366	0.721547	0	0	0	-0.0541316	-0.164131	0.455856	0.569155	0.972117	0	0
22.52	1.30978	1.44504	0.197914	0.839526	-0.344919	0.972571	0.0411753	0.104387	-0.192959	0.177818	0.0798122	0	0	-0.0618595	-0.126293	-0.265454	0	0.0445055	0	0	-0.00487173	0.164087	0.0162189	-0.147187	-0.2013	-0.00763663	0.719805	0	0	0	-0.0539847	-0.164284	0.456658	0.568325	0.972546	0	0
22.53	1.30964	1.445	0.198461	0.839317	-0.344808	0.972556	0.0412967	0.104169	-0.193435	0.178204	0.0800019	0	0	-0.0619056	-0.126136	-0.265097	0	0.0445235	0	0	-0.00506356	0.164186	0.0164882	-0.147954	-0.201153	-0.00751842	0.718094	0	0	0	-0.0539188	-0.164406	0.457527	0.567508	0.972122	0	0
22.54	1.30788	1.44494	0.200656	0.839131	-0.344698	0.972526	0.0415373	0.10397	-0.193715	0.178396	0.0801968	0	0	-0.0617258	-0.12597	-0.264747	0	0.0446014	0	0	-0.0049407	0.164231	0.0166634	-0.148836	-0.200924	-0.0081144	0.71607	0	0	0	-0.0543094	-0.164818	0.459158	0.567245	0.972696	0	0
22.55	1.30578	1.4449	0.203148	0.838958	-0.344603	0.972505	0.0418319	0.10375	-0.193904	0.178595	0.0803238	0	0	-0.06149	-0.125785	-0.264365	0	0.0446566	0	0	-0.0047642	0.164243	0.0167835	-0.149721	-0.200667	-0.00883411	0.71427	0	0	0	-0.0547176	-0.165081	0.460574	0.56659	0.973089	0	0
22.56	1.30414	1.44489	0.205108	0.838789	-0.344508	0.972491	0.0421346	0.103496	-0.19427	0.178895	0.0804015	0	0	-0.0613367	-0.12558	-0.264047	0	0.0446866	0	0	-0.00474739	0.164247	0.0169659	-0.15065	-0.200407	-0.00944717	0.713061	0	0	0	-0.0551685	-0.164926	0.459784	0.564783	0.969783	0	0
22.57	1.30194	1.44486	0.207724	0.838626	-0.344428	0.97247	0.0424501	0.103259	-0.194884	0.179059	0.0805054	0	0	-0.061055	-0.125438	-0.263684	0	0.0447852	0	0	-0.00468162	0.164279	0.0169421	-0.151541	-0.20014	-0.00986356	0.712247	0	0	0	-0.0556935	-0.16428	0.456187	0.561236	0.960452	0	0
22.58	1.3	1.44485	0.210145	0.838468	-0.344358	0.972447	0.042672	0.10302	-0.195288	0.179142	0.0807478	0	0	-0.0607714	-0.12527	-0.26324	0	0.0448306	0	0	-0.00463067	0.164254	0.0167067	-0.152368	-0.199936	-0.0101318	0.711504	0	0	0	-0.0563492	-0.164287	0.456455	0.559674	0.953154	0	0
22.59	1.29804	1.44476	0.212471	0.83833	-0.344286	0.972422	0.0429122	0.102914	-0.195591	0.179169	0.0807784	0	0	-0.0604939	-0.125195	-0.26293	0	0.0449818	0	0	-0.00450938	0.164264	0.0166057	-0.153054	-0.199706	-0.0102047	0.710279	0	0	0	-0.0572663	-0.164852	0.46015	0.560357	0.951724	0	0
22.6	1.21487	1.44828	0.302492	0.837538	-0.345772	0.972196	0.0577878	0.0945946	-0.204524	0.186234	0.0829046	0	0	-0.0452576	-0.122058	-0.278412	0	0.0371118	0	0	0.00338131	0.157221	0.00817946	-0.148106	-0.196897	-0.010597	0.701726	0	0	0	-0.0560971	-0.165982	0.463865	0.559543	0.958757	0	0
22.61	1.2822	1.44472	0.228461	0.838135	-0.344234	0.972284	0.0458777	0.101976	-0.197143	0.181227	0.0819296	0	0	-0.0584048	-0.124491	-0.262882	0	0.0451681	0	0	-0.00274244	0.163922	0.016285	-0.153147	-0.19906	-0.010116	0.705646	0	0	0	-0.0599718	-0.165525	0.465682	0.562593	0.961538	0	0
22.62	1.29471	1.44498	0.216717	0.838089	-0.344222	0.972422	0.0431342	0.102313	-0.19623	0.17911	0.0808634	0	0	-0.0600733	-0.1246	-0.262257	0	0.0451179	0	0	-0.00244039	0.164631	0.00766177	-0.153466	-0.229526	0.250818	0.699217	1.01785	0	0	-0.066532	-0.164919	0.454513	0.563467	0.970314	0	0
22.63	1.2094	1.44798	0.308545	0.837247	-0.345621	0.972151	0.0583255	0.0944005	-0.204633	0.186142	0.0831714	0	0	-0.0444798	-0.121819	-0.278097	0	0.0374564	0	0	0.00331377	0.157448	0.00789158	-0.15008	-0.197178	-0.00379006	0.700368	0.0488611	0	0	-0.0594793	-0.165802	0.465751	0.558154	0.966756	0	0
22.64	1.29073	1.44478	0.221042	0.83791	-0.344126	0.97239	0.0434419	0.102296	-0.195822	0.17892	0.0809948	0	0	-0.059404	-0.124511	-0.262096	0	0.0452244	0	0	-0.00253149	0.164671	0.0078156	-0.155725	-0.230119	0.252235	0.701394	1.00558	0	0	-0.0685861	-0.164865	0.457165	0.561653	0.969554	0	0
22.65	1.28868	1.44486	0.223172	0.837834	-0.344083	0.972378	0.043628	0.102075	-0.195733	0.178767	0.0808983	0	0	-0.0591493	-0.124285	-0.262094	0	0.0453399	0	0	-0.00266535	0.164541	0.00804701	-0.156589	-0.229027	0.24713	0.700297	1.02055	0	0	-0.0694223	-0.164708	0.45873	0.560616	0.969905	0	0
22.66	1.28699	1.44485	0.22469	0.837787	-0.344029	0.972368	0.0438487	0.10198	-0.195565	0.178809	0.0809725	0	0	-0.0590023	-0.124154	-0.262336	0	0.045522	0	0	-0.00286515	0.164542	0.00864048	-0.157449	-0.228367	0.24383	0.699649	1.0306	0	0	-0.0703227	-0.164541	0.460312	0.559971	0.970626	0	0
22.67	1.28637	1.44486	0.225046	0.837746	-0.343983	0.972356	0.043961	0.101879	-0.195485	0.17893	0.0810024	0	0	-0.0590122	-0.124018	-0.26265	0	0.0456856	0	0	-0.00330215	0.164575	0.00948119	-0.15838	-0.228029	0.241451	0.699632	1.03757	0	0	-0.0713709	-0.164318	0.461751	0.559579	0.972178	0	0
22.68	1.28514	1.44493	0.226013	0.837719	-0.343948	0.972336	0.0441546	0.101734	-0.195283	0.179068	0.0811217	0	0	-0.0589635	-0.123846	-0.262852	0	0.0457797	0	0	-0.00359762	0.164532	0.00989049	-0.15891	-0.227699	0.240074	0.699431	1.04165	0	0	-0.0727897	-0.164009	0.462216	0.559185	0.973291	0	0
22.69	1.28332	1.44493	0.22781	0.837804	-0.344223	0.972377	0.0444074	0.101629	-0.194883	0.179336	0.0811583	0	0	-0.0587329	-0.123742	-0.263229	0	0.0460618	0	0	-0.00391934	0.164422	0.00961346	-0.15868	-0.227347	0.239896	0.698454	1.04405	0	0	-0.07401	-0.163911	0.462617	0.558491	0.972551	0	0
